<svg width="327" height="321" viewBox="0 0 327 321" fill="none" xmlns="http://www.w3.org/2000/svg">
<path fill-rule="evenodd" clip-rule="evenodd" d="M162.994 0.242256C150.913 0.73452 144.064 1.43262 132.275 4.12615C109.362 9.36128 96.5526 15.1076 77.2526 28.5396C69.7153 33.7852 65.9352 37.3467 58.9953 43.3627C56.0117 45.9491 54.2634 47.3223 51.4476 50.0911C45.3725 56.065 42.5699 60.0309 37.5895 66.9468C31.2724 75.7186 28.1884 81.012 23.2866 90.6491C18.0765 100.892 15.9173 107.023 12.0002 117.829C8.06452 128.686 5.69279 134.785 3.21153 146.065C1.86595 152.182 1.08513 155.636 0.492546 161.872C-0.272569 169.923 -0.0629333 174.517 0.553079 182.581C0.832407 186.237 1.09112 188.28 1.57896 191.915C2.75932 200.709 3.53274 205.669 5.90152 214.219C6.24619 215.463 6.43774 216.162 6.82053 217.394C11.1177 231.234 16.4204 238.108 25.249 249.591C29.9752 255.738 33.012 258.894 38.4574 264.413C43.0905 269.107 50.8292 275.909 50.8292 275.909C50.8292 275.909 60.1805 282.787 66.2301 287.114C72.1742 291.365 75.4695 293.806 81.5371 297.878C85.0527 300.238 86.9575 301.674 90.6147 303.807C101.377 310.083 108.251 312.264 120.251 315.599C136.664 320.161 146.502 320.82 163.534 320.978C175.913 321.092 182.962 320.826 195.148 318.641C212.559 315.519 222.499 312.556 238.068 304.146C246.365 299.663 250.555 296.329 258.199 290.802C264.298 286.393 268.721 283.565 273.442 279.009C278.118 274.496 283.311 269.74 288.596 262.91C294.051 255.86 296.26 251.285 300.699 243.552C306.267 233.855 309.484 228.405 313.77 218.075C321.46 199.54 324.721 188.259 326.393 168.257C327.47 155.367 327.048 148.001 325.647 135.141C324.661 126.09 324.261 120.903 321.725 112.159C318.894 102.393 315.898 97.3765 311.379 88.2707C308.013 81.4909 305.845 77.8323 302.096 71.2574C300.605 68.6411 299.832 67.1352 298.227 64.5867C293.935 57.769 290.954 54.2942 285.599 48.2784C279.881 41.8537 276.273 38.5977 269.794 32.943C264.203 28.0632 261.252 24.9881 254.925 21.1126C247.823 16.7621 243.171 15.5315 235.387 12.5737C222.675 7.74285 215.329 5.29104 201.954 2.84094C186.955 0.0931443 178.23 -0.378524 162.994 0.242256ZM187.977 11.9886C193.36 12.3829 196.361 12.8187 201.714 13.5107C207.267 14.2286 210.427 14.4189 215.897 15.6174C225.126 17.6394 230.113 19.7112 238.778 23.4798C242.857 25.2536 245.181 26.2068 249.046 28.408C257.02 32.9494 260.907 36.5589 267.572 42.8713C277.091 51.8862 281.154 58.2553 288.588 69.06C294.174 77.1798 297.42 81.7434 301.722 90.6128C308.944 105.499 311.794 114.79 313.869 131.21C314.408 135.472 314.454 137.889 314.782 142.172C315.508 151.669 316.658 156.998 316.281 166.516C315.427 188.112 310.893 200.385 301.494 219.84C298.745 225.532 296.276 228.253 293.702 234.027C292.552 236.607 292.321 238.24 291.003 240.738C288.602 245.292 286.039 247.053 282.781 251.037C275.653 259.754 272.514 265.56 263.965 272.885C255.1 280.481 248.915 283.262 238.507 288.542C231.443 292.125 227.457 294.214 219.937 296.699C208.374 300.521 201.203 299.897 189.223 302.076C180.36 303.688 175.54 305.768 166.549 306.314C156.154 306.945 150.3 305.452 139.974 304.104C127.527 302.48 120.109 302.649 108.386 298.155C100.67 295.198 96.8122 292.44 89.6546 288.307C80.9612 283.288 75.8809 280.665 68.0355 274.399C55.0079 263.995 50.0695 255.516 39.6651 242.481C36.4127 238.406 34.7609 235.986 31.5105 231.91C29.9149 229.909 28.8936 228.885 27.3845 226.818C16.3884 211.754 16.9917 199.166 15.3592 180.577C14.1551 166.866 13.7709 158.823 16.5992 145.353C18.5174 136.218 20.903 131.426 24.1896 122.691C27.0789 115.011 28.5377 110.608 32.2178 103.276C36.4679 94.808 39.7741 90.5634 44.8896 82.59C48.7201 76.6195 50.7377 73.1744 54.9348 67.4565C57.2714 64.2732 58.5432 62.4485 61.1298 59.4655C66.1111 53.7208 69.4469 50.9573 75.3656 46.1876C84.6372 38.7159 91.0645 36.2493 101.115 29.868C104.205 27.9062 105.847 26.6549 109.026 24.8426C116.954 20.3242 121.78 18.2602 130.558 15.7793C141.009 12.8256 147.302 12.969 158.135 12.2071C169.761 11.3894 176.354 11.137 187.977 11.9886ZM89.4377 56.8951C89.4377 56.8951 83.8097 59.6665 80.8386 62.2939C76.6691 65.981 74.2913 68.6214 72.5955 73.9271C71.632 76.9418 71.5113 78.7913 71.4901 81.9566C71.4665 85.4829 71.2787 87.4349 71.9339 90.8997C72.5912 94.3754 73.9103 96.075 75.4768 99.0407C77.6533 103.161 79.5763 104.131 83.2603 108.08C85.0331 109.981 87.6834 111.526 89.6484 113.226C94.0936 117.072 97.8167 117.164 101.682 121.594C103.08 123.197 105.078 126.946 105.739 129.018C106.627 131.801 105.861 135.024 103.983 137.259C101.367 140.373 93.9669 142.831 93.9669 142.831C93.9669 142.831 89.2166 144.54 86.0509 145.113C79.5775 146.284 75.7691 145.158 69.2143 144.604C64.4215 144.198 61.6612 144.239 56.9922 143.082C54.0538 142.354 52.5394 141.49 49.628 140.66C45.4729 139.476 40.0579 137.992 38.8326 138.241C37.6072 138.49 37.1691 140.631 37.1691 140.631L34.91 148.278L33.4005 152.907C33.4005 152.907 32.2014 156.571 31.5653 158.955C30.7686 161.943 29.4757 165.602 29.4757 168.729C29.4757 169.152 30.0795 169.842 30.0795 169.842C30.0795 169.842 33.736 171.988 36.2686 172.923C39.6331 174.165 41.7169 174.221 45.2504 174.831C46.0891 174.976 46.5617 175.044 47.4015 175.183C55.8684 176.588 60.4375 178.571 68.9879 179.312C71.4028 179.522 72.7623 179.763 75.1845 179.67C77.1834 179.593 78.2883 179.331 80.2716 179.07C84.3557 178.532 90.6874 177.402 90.6874 177.402C90.6874 177.402 92.9819 176.941 94.3858 176.432C100.096 174.363 106.009 166.086 106.009 166.086C106.009 166.086 111.446 158.363 113.422 152.736C116.729 143.322 118.257 136.564 114.765 127.218C113.352 123.437 111.854 120.853 109.632 118.249C107.41 115.644 107.285 115.777 105.739 114.235C99.6618 108.174 90.7921 108.208 89.1971 99.768C87.6136 91.3893 91.1798 83.3768 99.132 80.3312C104.588 78.2415 109.906 78.2735 115.717 78.8651C123.474 79.6547 129.304 84.7893 132.308 81.2762C133.193 80.2419 133.226 79.8922 134.373 76.5175C134.785 75.304 135.008 74.6208 135.439 73.4138C137.534 67.5412 141.657 58.7095 141.657 58.7095C141.657 58.7095 142.575 57.2918 137.925 54.2983C133.275 51.3047 116.229 48.9082 102.911 51.7921C97.4155 52.9822 93.7293 54.2041 89.4377 56.8951ZM205.341 53.6161L194.846 53.9148C194.846 53.9148 190.087 54.3026 187.071 54.7951C184.427 55.227 183.011 55.8483 180.354 56.1916C178.887 56.3811 176.58 56.518 176.58 56.518C176.58 56.518 170.448 55.6491 169.024 59.6902C166.016 68.2282 165.216 76.9376 161.447 87.5723C159.714 92.4625 156.579 99.9331 156.579 99.9331C156.579 99.9331 149.371 118.512 144.222 130.19C141.062 137.355 139.117 141.295 135.821 148.399C129.916 161.129 120.576 180.938 120.576 180.938C120.576 180.938 110.758 207.153 103.451 223.518C96.9796 238.011 85.6563 260.056 85.6563 260.056C85.6563 260.056 81.861 265.098 91.1388 265.595C94.8782 265.795 97.2345 266.609 101.179 266.761C106.402 266.964 114.206 266.308 114.538 265.913C124.087 254.539 128.703 241.025 136.107 224.274C141.97 211.009 143.877 203.004 149.443 189.611C150.334 187.467 150.873 185.692 151.748 184.13C154.276 179.624 155.215 181.644 163.108 182.183C171 182.722 175.428 182.181 183.298 181.644C197.406 180.681 206.436 182.717 219.143 176.499C223.823 174.209 226.167 172.372 230.388 169.315C234.328 166.461 236.454 164.73 240.065 161.469C243.592 158.284 247.599 154.199 248.661 152.853C249.723 151.508 251.076 149.537 252.55 147.36C254.68 144.216 255.848 142.43 257.762 139.148C259.491 136.184 260.406 134.487 261.929 131.412C264.788 125.638 266.709 122.435 268.285 116.187C269.416 111.698 269.682 109.07 269.945 104.448C270.318 97.8913 270.487 94.0362 268.9 87.6644C267.99 84.009 267.42 81.9 265.61 78.5974C263.358 74.4881 261.378 72.5583 257.951 69.3654C257.345 68.8007 257.012 68.4748 256.367 67.9548C254.059 66.0937 249.717 64.2962 249.717 64.2962C249.717 64.2962 241.518 60.4321 236.022 58.6078C228.775 56.2022 221.273 54.6185 216.959 54.2667C212.644 53.9148 205.341 53.6161 205.341 53.6161ZM221.074 67.6326C221.074 67.6326 229.207 67.7471 232.735 70.9017C235.945 73.7725 236.201 76.7754 237.326 80.936C239.013 87.1777 238.363 91.0744 237.575 97.4925C237.033 101.903 236.334 104.328 235.132 108.606C233.752 113.52 232.757 116.224 230.777 120.929C229.405 124.188 228.547 125.981 226.928 129.125C223.96 134.892 222.026 138.002 218.357 143.35C211.518 153.314 208.531 160.614 198.144 166.777C189.869 171.688 184.075 173.12 174.467 173.57C171.699 173.699 167.372 173.43 167.372 173.43C167.372 173.43 162.934 173.196 160.82 173.193C157.832 173.189 157.081 172.946 156.873 172.591C155.905 169.424 164.972 154.7 169.568 142.739C171.339 138.133 172.295 135.536 173.962 130.891C175.065 127.816 175.717 126.104 176.731 122.999C177.482 120.702 177.838 119.394 178.558 117.087C180.14 112.022 180.783 109.094 182.695 104.144C184.265 100.077 185.553 97.9686 187.215 93.9392C189.231 89.0546 190.015 86.1798 191.984 81.2762C193.699 77.0042 194.567 73.9097 196.582 70.4223C198.596 66.9349 221.074 67.6326 221.074 67.6326ZM256.526 185.502C253.819 187.397 252.877 189.385 251.529 192.22C250.411 194.57 249.639 195.816 248.497 198.154C245.055 205.205 243.888 209.503 240.677 216.662C240.462 217.14 240.272 217.532 240.126 217.886C239.538 219.304 239.118 220.629 238.396 222.356C237.491 224.518 236.892 226.852 235.479 227.746C234.705 228.236 233.053 228.883 232.081 228.871C225.97 228.79 223.898 228.589 217.791 228.81C211.59 229.034 208.094 228.464 201.903 228.871C200.087 228.99 198.183 228.689 197.367 228.317C196.234 227.8 197.059 226.883 197.367 226.003C198.027 224.118 199.148 221.203 199.148 221.203C199.148 221.203 200.224 218.118 200.808 216.109C201.485 213.784 201.627 212.415 202.318 210.094C203.455 206.268 206.274 200.173 207.099 196.131C206.301 192.981 200.88 191.917 199.345 194.851C198.389 196.681 195.072 203.938 195.072 203.938C195.072 203.938 193.114 209.9 191.766 213.688C190.76 216.513 190.11 218.066 189.109 220.894C188.289 223.212 188.033 224.589 187.071 226.852C186.845 227.384 186.698 227.674 186.469 228.205C185.33 230.846 184.984 232.443 183.949 235.126C182.206 239.65 181.039 242.111 179.121 246.563C177.589 250.121 176.546 252.039 175.146 255.651C174.696 256.811 174.52 257.492 174.034 258.639C173.77 259.264 173.602 259.605 173.318 260.222C172.245 262.555 171.472 263.783 170.432 266.131C169.727 267.724 169.413 268.652 168.731 270.255C167.901 272.204 166.538 275.215 166.538 275.215L166.01 276.431C166.01 276.431 164.814 278.153 164.881 279.387C164.97 280.999 167.271 282.759 167.271 282.759C167.271 282.759 171.287 285.253 173.269 283.923C173.54 283.741 173.669 283.608 173.914 283.393C177.177 280.539 176.323 277.031 178.467 273.261C178.84 272.606 179.084 272.259 179.448 271.6C180.906 268.965 181.19 267.233 182.395 264.473C183.903 261.018 185.346 259.322 186.474 255.724C186.661 255.125 186.739 254.78 186.921 254.179C187.702 251.596 189.26 247.678 189.26 247.678C189.26 247.678 190.397 244.062 191.827 242.167C193.641 239.762 192.962 236.431 195.972 236.431C200.301 236.431 204.56 236.954 208.809 236.989C211.848 237.014 213.547 237.205 216.583 237.342C220.422 237.515 222.575 237.595 226.413 237.783C228.491 237.885 230.146 237.684 230.567 239.108C230.987 240.533 230.567 241.475 230.567 241.475L227.395 249.096L225.867 253.38L222.772 260.995C222.772 260.995 222.456 261.773 222.241 262.267C221.015 265.085 219.904 266.445 218.697 269.258C217.212 272.722 215.906 274.994 215.602 278.399C215.295 281.824 216.111 285.35 220.754 285.532C223.897 285.654 232.148 287.066 237.4 283.116C237.971 282.686 238.802 281.942 238.802 281.942C238.802 281.942 242.329 275.558 244.482 271.411C249.783 261.201 251.548 255.085 255.924 244.445C259.33 236.164 261.272 231.457 264.926 223.233C266.664 219.322 267.725 217.168 269.456 213.254C271.006 209.747 271.736 207.719 273.348 204.24C274.065 202.694 274.569 201.874 275.229 200.302C277.319 195.322 281.029 188.57 278.578 186.88C271.695 183.152 259.233 183.606 256.526 185.502Z" fill="#D34C1C"/>
</svg>
